<svg width="1692" height="1408" xmlns="http://www.w3.org/2000/svg">

 <g>
  <title>background</title>
  <rect fill="none" id="canvas_background" height="1410" width="1694" y="-1" x="-1"/>
 </g>
 <g>
  <title>Layer 1</title>
  <g id="packet">
   <path fill="#3f6d80" id="svg_1" d="m1692,166.177c0,-91.225 -73.952,-165.177 -165.177,-165.177l-1360.646,0c-91.225,0 -165.177,73.952 -165.177,165.177l0,1076.646c0,91.225 73.952,165.177 165.177,165.177l1360.646,0c91.225,0 165.177,-73.952 165.177,-165.177l0,-1076.646zm-1524.938,-33.177l1361.057,0c18.216,0 32.881,14.528 32.881,32.746l0,1.433l-690.084,690.158c-8.417,8.417 -18.208,9.675 -23.318,9.675c-5.11,0 -14.934,-1.258 -23.353,-9.675l-690.245,-690.252l0,-1.339c0,-18.218 14.846,-32.746 33.062,-32.746zm1361.057,1143l-1361.057,0c-18.216,0 -33.062,-15.084 -33.062,-33.301l0,-888.738l596.826,596.816c31.198,31.197 72.684,48.376 116.803,48.376c44.125,-0.003 85.528,-17.186 116.724,-48.382l596.647,-596.717l0,888.645c0,18.217 -14.665,33.301 -32.881,33.301z"/>
  </g>
  <g id="Layer_1"/>
 </g>
</svg>